# xmcd
#
# Track frame offsets: 
#        150
#        4361
#        23436
#        39023
#        57020
#        60855
#        84817
#        108974
#        135631
#        160955
#        185714
#        212405
#        240821
#        261992
#
# Disc length: 3543 seconds
#
# Revision: 0
# Processed by: cddbd v1.5.2PL0 Copyright (c) Steve Scherf et al.
# Submitted via: ExactAudioCopyFreeDBPlugin 1.0
#
DISCID=9d0dd50e
DTITLE=Little Axe - Bought For A Dollar Sold For A Dime
DYEAR=2000
DGENRE=Blues
TTITLE0=Guide My Feet
TTITLE1=Soul Of A Man
TTITLE2=Grinning
TTITLE3=Take A Stroll
TTITLE4=Hands Off
TTITLE5=Can´t Sleep
TTITLE6=Hammerhead
TTITLE7=Can´t Stop Walking Yet
TTITLE8=Hear Me Cry
TTITLE9=Too Late
TTITLE10=Another Friend Gone
TTITLE11=Tell Me Why
TTITLE12=Return
TTITLE13=When The Sun Goes Down
EXTD=
EXTT0=
EXTT1=
EXTT2=
EXTT3=
EXTT4=
EXTT5=
EXTT6=
EXTT7=
EXTT8=
EXTT9=
EXTT10=
EXTT11=
EXTT12=
EXTT13=
PLAYORDER=
